<?xml version="1.0" encoding="UTF-8" standalone="no"?>
<!-- Created with Inkscape (http://www.inkscape.org/) -->

<svg
   xmlns:dc="http://purl.org/dc/elements/1.1/"
   xmlns:cc="http://creativecommons.org/ns#"
   xmlns:rdf="http://www.w3.org/1999/02/22-rdf-syntax-ns#"
   xmlns:svg="http://www.w3.org/2000/svg"
   xmlns="http://www.w3.org/2000/svg"
   xmlns:sodipodi="http://sodipodi.sourceforge.net/DTD/sodipodi-0.dtd"
   xmlns:inkscape="http://www.inkscape.org/namespaces/inkscape"
   width="210mm"
   height="297mm"
   viewBox="0 0 210 297"
   version="1.1"
   id="svg8"
   inkscape:version="0.92.3 (2405546, 2018-03-11)"
   sodipodi:docname="logo_v02.svg">
  <defs
     id="defs2">
    <inkscape:path-effect
       effect="skeletal"
       id="path-effect835"
       is_visible="true"
       pattern="m 111.69194,126.56232 h 0.55563 v 2.43205 h -0.55563 z"
       copytype="repeated_stretched"
       prop_scale="1"
       scale_y_rel="false"
       spacing="1.4"
       normal_offset="0"
       tang_offset="0"
       prop_units="false"
       vertical_pattern="false"
       fuse_tolerance="0" />
  </defs>
  <sodipodi:namedview
     id="base"
     pagecolor="#ffffff"
     bordercolor="#666666"
     borderopacity="1.0"
     inkscape:pageopacity="0.0"
     inkscape:pageshadow="2"
     inkscape:zoom="1"
     inkscape:cx="279.38904"
     inkscape:cy="550.34058"
     inkscape:document-units="px"
     inkscape:current-layer="layer1"
     showgrid="false"
     inkscape:window-width="1366"
     inkscape:window-height="705"
     inkscape:window-x="-8"
     inkscape:window-y="-8"
     inkscape:window-maximized="1"
     showborder="false" />
  <metadata
     id="metadata5">
    <rdf:RDF>
      <cc:Work
         rdf:about="">
        <dc:format>image/svg+xml</dc:format>
        <dc:type
           rdf:resource="http://purl.org/dc/dcmitype/StillImage" />
        <dc:title />
      </cc:Work>
    </rdf:RDF>
  </metadata>
  <g
     inkscape:label="Layer 1"
     inkscape:groupmode="layer"
     id="layer1">
    <circle
       style="opacity:0.53;fill:none;fill-opacity:1;stroke:#000000;stroke-width:1.98437501;stroke-miterlimit:4;stroke-dasharray:none;stroke-opacity:1"
       id="path825"
       cx="72.760414"
       cy="145.39375"
       r="24.341667" />
    <circle
       r="21.960419"
       cy="145.39375"
       cx="72.760414"
       id="circle827"
       style="opacity:0.52999998;fill:none;fill-opacity:1;stroke:#000000;stroke-width:1.0583334;stroke-miterlimit:4;stroke-dasharray:none;stroke-opacity:1" />
    <path
       style="opacity:0.52999998;fill:#000000;fill-opacity:1;stroke:none;stroke-width:3.99999976;stroke-miterlimit:4;stroke-dasharray:none;stroke-opacity:1"
       d="M 386.50977 438.00977 L 363.24805 446.54688 L 370.45117 450.06641 L 337.94141 482.57617 A 92.000002 92.000002 0 0 1 341.98047 486.54102 L 374.45312 454.06836 L 377.97266 461.27148 L 386.50977 438.00977 z M 208.01953 612.49805 L 182.39258 638.125 L 176.58594 636.6582 L 170.03711 643.20508 L 163.49023 649.75391 L 172.49023 652.0293 L 174.76562 661.0293 L 181.31445 654.48242 L 187.86133 647.93359 L 186.39453 642.12695 L 212.05859 616.46289 A 92.000002 92.000002 0 0 1 208.01953 612.49805 z "
       transform="scale(0.26458333)"
       id="rect829" />
    <path
       style="opacity:0.52999998;fill:#000000;fill-opacity:1;stroke:none;stroke-width:3.99999976;stroke-miterlimit:4;stroke-dasharray:none;stroke-opacity:1"
       d="M 163.49023 438.00977 L 172.02734 461.27148 L 175.54688 454.06836 L 208.05664 486.57812 A 92.000002 92.000002 0 0 1 212.02148 482.53906 L 179.54883 450.06641 L 186.75195 446.54688 L 163.49023 438.00977 z M 341.94336 612.46094 A 92.000002 92.000002 0 0 1 337.97852 616.5 L 363.60547 642.12695 L 362.13867 647.93359 L 368.68555 654.48242 L 375.23438 661.0293 L 377.50977 652.0293 L 386.50977 649.75391 L 379.96289 643.20508 L 373.41406 636.6582 L 367.60742 638.125 L 341.94336 612.46094 z "
       transform="scale(0.26458333)"
       id="path846" />
    <path
       style="color:#000000;font-style:normal;font-variant:normal;font-weight:normal;font-stretch:normal;font-size:medium;line-height:normal;font-family:sans-serif;font-variant-ligatures:normal;font-variant-position:normal;font-variant-caps:normal;font-variant-numeric:normal;font-variant-alternates:normal;font-feature-settings:normal;text-indent:0;text-align:start;text-decoration:none;text-decoration-line:none;text-decoration-style:solid;text-decoration-color:#000000;letter-spacing:normal;word-spacing:normal;text-transform:none;writing-mode:lr-tb;direction:ltr;text-orientation:mixed;dominant-baseline:auto;baseline-shift:baseline;text-anchor:start;white-space:normal;shape-padding:0;clip-rule:nonzero;display:inline;overflow:visible;visibility:visible;opacity:0.52999998;isolation:auto;mix-blend-mode:normal;color-interpolation:sRGB;color-interpolation-filters:linearRGB;solid-color:#000000;solid-opacity:1;vector-effect:none;fill:#000000;fill-opacity:1;fill-rule:nonzero;stroke:none;stroke-width:3.99999976;stroke-linecap:butt;stroke-linejoin:miter;stroke-miterlimit:4;stroke-dasharray:none;stroke-dashoffset:0;stroke-opacity:1;color-rendering:auto;image-rendering:auto;shape-rendering:auto;text-rendering:auto;enable-background:accumulate"
       d="M 274.99805 429.52344 C 250.16613 429.52344 227.08876 437.07354 207.94141 450.00391 L 210.8125 452.875 C 229.19141 440.64659 251.25702 433.51562 274.99805 433.51562 C 298.73869 433.51562 320.80486 440.645 339.18359 452.87305 L 342.05273 450.00586 C 322.9052 437.07513 299.83034 429.52344 274.99805 429.52344 z M 175.47852 482.4668 C 162.54815 501.61415 154.99805 524.69154 154.99805 549.52344 C 154.99805 574.35572 162.54974 597.4306 175.48047 616.57812 L 178.35352 613.70508 C 166.12729 595.32661 158.99805 573.2635 158.99805 549.52344 C 158.99805 525.78435 166.12626 503.71913 178.35156 485.33984 L 175.47852 482.4668 z M 374.51758 482.4668 L 371.64258 485.3418 C 383.86744 503.72087 390.99609 525.78482 390.99609 549.52344 C 390.99609 573.26264 383.86799 595.32506 371.64258 613.70312 L 374.51562 616.57812 C 387.44635 597.4306 394.99805 574.35572 394.99805 549.52344 C 394.99805 524.69154 387.44794 501.61415 374.51758 482.4668 z M 210.81641 646.16797 L 207.94336 649.04102 C 227.09045 661.97083 250.16672 669.52344 274.99805 669.52344 C 299.82937 669.52344 322.90369 661.97082 342.05078 649.04102 L 339.17969 646.16797 C 320.80162 658.39338 298.73725 665.52148 274.99805 665.52148 C 251.25885 665.52148 229.19447 658.39338 210.81641 646.16797 z "
       transform="scale(0.26458333)"
       id="circle854" />
    <path
       style="opacity:0.52999998;fill:#000000;fill-opacity:1;stroke:none;stroke-width:7.50000048;stroke-miterlimit:4;stroke-dasharray:none;stroke-opacity:1"
       d="M 187.78906 483.60938 C 187.34305 484.18367 186.90218 484.76151 186.4668 485.34375 L 193.78906 490.82812 C 194.19209 490.29094 194.60081 489.75859 195.01367 489.22852 L 187.78906 483.60938 z M 363.53516 485.34375 L 356.21094 490.83008 C 356.61396 491.36726 357.01129 491.90707 357.4043 492.45117 L 364.82422 487.10352 C 364.39966 486.51357 363.97053 485.92595 363.53516 485.34375 z M 183.2793 489.81836 C 182.87153 490.41968 182.46876 491.02423 182.07227 491.63281 L 189.72266 496.62695 C 190.08962 496.06622 190.46242 495.50935 190.83984 494.95508 L 183.2793 489.81836 z M 367.92773 491.63281 L 360.27734 496.62891 C 360.6443 497.18964 361.00699 497.75331 361.36328 498.32031 L 369.09961 493.46875 C 368.71459 492.85306 368.32422 492.24139 367.92773 491.63281 z M 179.18555 496.29883 C 178.81829 496.92491 178.45688 497.55481 178.10156 498.1875 L 186.04883 502.66211 C 186.37745 502.08006 186.71104 501.50201 187.05078 500.92578 L 179.18555 496.29883 z M 371.89844 498.18945 L 363.95117 502.66406 C 364.27979 503.24611 364.60458 503.83033 364.92188 504.41797 L 372.94727 500.0957 C 372.60405 499.45659 372.25375 498.82215 371.89844 498.18945 z M 175.53125 503.03125 C 175.20679 503.67982 174.88806 504.33179 174.57617 504.98633 L 182.79102 508.91016 C 183.07902 508.30914 183.37208 507.71111 183.67188 507.11523 L 175.53125 503.03125 z M 375.42383 504.98633 L 367.20898 508.91211 C 367.49698 509.51317 367.77863 510.11665 368.05469 510.72266 L 376.33984 506.95898 C 376.04072 506.2987 375.73571 505.64083 375.42383 504.98633 z M 172.3418 509.98828 C 172.0624 510.65703 171.78963 511.32787 171.52344 512.00195 L 179.97461 515.34766 C 180.21972 514.72989 180.47098 514.11323 180.72852 513.5 L 172.3418 509.98828 z M 378.47852 512.00195 L 370.02539 515.34766 C 370.27049 515.96542 370.50971 516.58492 370.74219 517.20703 L 379.25586 514.0332 C 379.00308 513.35402 378.74459 512.67599 378.47852 512.00195 z M 169.63867 517.14648 C 169.40662 517.83315 169.18108 518.52154 168.96289 519.21289 L 177.62305 521.94922 C 177.82299 521.31698 178.02917 520.68499 178.24219 520.05664 L 169.63867 517.14648 z M 381.03711 519.21289 L 372.37695 521.94922 C 372.57689 522.58142 372.77036 523.21566 372.95703 523.85156 L 381.66992 521.29492 C 381.46579 520.59907 381.25519 519.90424 381.03711 519.21289 z M 167.44922 524.48047 C 167.26677 525.18278 167.09175 525.88739 166.92383 526.59375 L 175.75977 528.68945 C 175.91225 528.04504 176.0721 527.40292 176.23828 526.76172 L 167.44922 524.48047 z M 383.07812 526.59375 L 374.24023 528.69141 C 374.39272 529.33582 374.53914 529.98144 374.67773 530.62891 L 383.55859 528.71875 C 383.40526 528.00858 383.24594 527.30011 383.07812 526.59375 z M 165.79492 531.96875 C 165.66438 532.68444 165.54117 533.402 165.42578 534.12109 L 174.41016 535.54883 C 174.51292 534.89452 174.62311 534.24155 174.74023 533.58984 L 165.79492 531.96875 z M 384.57422 534.12305 L 375.58984 535.54883 C 375.69261 536.20314 375.78874 536.85893 375.87695 537.51562 L 384.89844 536.28516 C 384.79828 535.56289 384.68949 534.84214 384.57422 534.12305 z M 164.69922 539.58594 C 164.62283 540.3127 164.55473 541.04196 164.49414 541.77148 L 173.59766 542.5 C 173.64845 541.83805 173.70764 541.17756 173.77344 540.51758 L 164.69922 539.58594 z M 385.50586 541.77148 L 376.40234 542.5 C 376.45314 543.16191 376.49572 543.8246 376.53125 544.48828 L 385.66406 543.96484 C 385.61946 543.23275 385.56633 542.50101 385.50586 541.77148 z M 164.18945 547.30859 C 164.16942 548.0442 164.15779 548.78184 164.1543 549.51953 L 173.3457 549.51953 C 173.3423 548.85226 173.34728 548.18552 173.35938 547.51953 L 164.18945 547.30859 z M 376.65625 549.51953 C 376.65965 550.18684 376.65467 550.8535 376.64258 551.51953 L 385.8125 551.73047 C 385.8314 550.99486 385.84223 550.25726 385.8457 549.51953 L 376.65625 549.51953 z M 173.46875 554.55078 L 164.33594 555.07422 C 164.38054 555.80631 164.43355 556.53805 164.49414 557.26758 L 173.59766 556.53906 C 173.5469 555.87712 173.50428 555.21447 173.46875 554.55078 z M 376.40234 556.53906 C 376.35158 557.20101 376.29233 557.86147 376.22656 558.52148 L 385.30078 559.45312 C 385.37751 558.72636 385.44539 557.9971 385.50586 557.26758 L 376.40234 556.53906 z M 174.12305 561.52344 L 165.10156 562.75586 C 165.20161 563.47813 165.31039 564.19888 165.42578 564.91797 L 174.41016 563.49023 C 174.30739 562.83592 174.21126 562.18013 174.12305 561.52344 z M 375.58984 563.49023 C 375.48708 564.14455 375.37689 564.79748 375.25977 565.44922 L 384.20508 567.07031 C 384.33547 566.35462 384.45894 565.63706 384.57422 564.91797 L 375.58984 563.49023 z M 175.32422 568.41016 L 166.44141 570.32031 C 166.59462 571.03049 166.7559 571.73896 166.92383 572.44531 L 175.75977 570.34961 C 175.60727 569.70524 175.46281 569.05759 175.32422 568.41016 z M 374.24023 570.34961 C 374.08775 570.99402 373.92794 571.63618 373.76172 572.27734 L 382.55078 574.55859 C 382.73322 573.85628 382.90836 573.15163 383.07617 572.44531 L 374.24023 570.34961 z M 177.04297 575.1875 L 168.33008 577.74609 C 168.53421 578.44194 168.7447 579.13482 168.96289 579.82617 L 177.62305 577.08984 C 177.42311 576.4576 177.22964 575.82344 177.04297 575.1875 z M 372.37695 577.0918 C 372.17702 577.72404 371.97083 578.35408 371.75781 578.98242 L 380.36133 581.89258 C 380.59335 581.20591 380.81903 580.51752 381.03711 579.82617 L 372.37695 577.0918 z M 179.25781 581.83203 L 170.74414 585.00781 C 170.99691 585.68703 171.25725 586.36303 171.52344 587.03711 L 179.97461 583.69141 C 179.72951 583.07364 179.49033 582.4541 179.25781 581.83203 z M 370.02539 583.69141 C 369.78028 584.30917 369.52902 584.92583 369.27148 585.53906 L 377.6582 589.05078 C 377.9376 588.38203 378.21048 587.71119 378.47656 587.03711 L 370.02539 583.69141 z M 181.94531 588.31836 L 173.66016 592.08008 C 173.95929 592.7404 174.26429 593.3982 174.57617 594.05273 L 182.79102 590.12891 C 182.50302 589.52785 182.22137 588.92437 181.94531 588.31836 z M 367.20898 590.12891 C 366.92098 590.72993 366.62788 591.32795 366.32812 591.92383 L 374.46875 596.00781 C 374.79321 595.35925 375.11194 594.70724 375.42383 594.05273 L 367.20898 590.12891 z M 185.08008 594.62109 L 177.05273 598.94336 C 177.39595 599.58248 177.74625 600.21887 178.10156 600.85156 L 186.04883 596.37695 C 185.72021 595.79494 185.39737 595.20873 185.08008 594.62109 z M 363.95117 596.37695 C 363.62256 596.95896 363.28896 597.53709 362.94922 598.11328 L 370.81445 602.74023 C 371.18171 602.11416 371.54312 601.48426 371.89844 600.85156 L 363.95117 596.37695 z M 188.63672 600.7207 L 180.90039 605.57031 C 181.28541 606.186 181.67578 606.79767 182.07227 607.40625 L 189.72266 602.41211 C 189.3557 601.85138 188.99301 601.28775 188.63672 600.7207 z M 360.27734 602.41211 C 359.91039 602.97288 359.53758 603.52972 359.16016 604.08398 L 366.7207 609.2207 C 367.12847 608.61938 367.53125 608.01483 367.92773 607.40625 L 360.27734 602.41211 z M 192.5957 606.58789 L 185.17578 611.9375 C 185.60034 612.52745 186.03142 613.11311 186.4668 613.69531 L 193.78906 608.21094 C 193.38604 607.67375 192.98871 607.13199 192.5957 606.58789 z M 356.21094 608.21094 C 355.80791 608.74812 355.39919 609.28047 354.98633 609.81055 L 362.21094 615.42969 C 362.65695 614.85539 363.09782 614.27755 363.5332 613.69531 L 356.21094 608.21094 z "
       transform="scale(0.26458333)"
       id="circle817" />
  </g>
</svg>
