<?xml version="1.0" encoding="UTF-8" standalone="no"?>
<!-- Created with Inkscape (http://www.inkscape.org/) -->

<svg
   xmlns:dc="http://purl.org/dc/elements/1.1/"
   xmlns:cc="http://creativecommons.org/ns#"
   xmlns:rdf="http://www.w3.org/1999/02/22-rdf-syntax-ns#"
   xmlns:svg="http://www.w3.org/2000/svg"
   xmlns="http://www.w3.org/2000/svg"
   xmlns:sodipodi="http://sodipodi.sourceforge.net/DTD/sodipodi-0.dtd"
   xmlns:inkscape="http://www.inkscape.org/namespaces/inkscape"
   width="210mm"
   height="297mm"
   viewBox="0 0 210 297"
   version="1.1"
   id="svg8"
   inkscape:version="0.92.3 (2405546, 2018-03-11)"
   sodipodi:docname="logo.svg">
  <defs
     id="defs2" />
  <sodipodi:namedview
     id="base"
     pagecolor="#ffffff"
     bordercolor="#666666"
     borderopacity="1.0"
     inkscape:pageopacity="0.0"
     inkscape:pageshadow="2"
     inkscape:zoom="1"
     inkscape:cx="168.68735"
     inkscape:cy="780.41213"
     inkscape:document-units="px"
     inkscape:current-layer="layer1"
     showgrid="false"
     showborder="false"
     inkscape:snap-page="false"
     inkscape:window-width="1366"
     inkscape:window-height="705"
     inkscape:window-x="-8"
     inkscape:window-y="-8"
     inkscape:window-maximized="1" />
  <metadata
     id="metadata5">
    <rdf:RDF>
      <cc:Work
         rdf:about="">
        <dc:format>image/svg+xml</dc:format>
        <dc:type
           rdf:resource="http://purl.org/dc/dcmitype/StillImage" />
        <dc:title></dc:title>
      </cc:Work>
    </rdf:RDF>
  </metadata>
  <g
     inkscape:label="Camada 1"
     inkscape:groupmode="layer"
     id="layer1">
    <circle
       style="fill:none;stroke:#000000;stroke-width:3.96875001;stroke-miterlimit:4;stroke-dasharray:none;stroke-opacity:1;fill-opacity:1;opacity:0.5"
       id="path4546"
       cx="62.177082"
       cy="90.360413"
       r="25.135416" />
    <circle
       r="21.166666"
       cy="90.360413"
       cx="62.177082"
       id="circle4548"
       style="opacity:0.5;fill:none;fill-opacity:1;stroke:#000000;stroke-width:1.98437488;stroke-miterlimit:4;stroke-dasharray:none;stroke-opacity:1" />
    <path
       style="opacity:0.5;fill:#000000;fill-opacity:1;stroke:none;stroke-width:7.50000143;stroke-miterlimit:4;stroke-dasharray:none;stroke-opacity:1"
       d="M 340.20117 235.61133 L 323.07617 240.22656 L 328.45508 243.38672 L 299.82617 272.23633 A 94.999997 94.999997 0 0 1 303.86133 276.14258 L 332.42578 247.35742 L 335.58594 252.73633 L 340.20117 235.61133 z M 166.16602 406.92578 L 144.69141 428.56445 L 140.08008 426.74805 L 134.93945 431.88867 L 129.79883 437.0293 L 137.25977 439.9668 L 140.19727 447.42773 L 145.33789 442.28906 L 150.47852 437.14844 L 148.66211 432.53516 L 170.20312 410.82812 A 94.999997 94.999997 0 0 1 166.16602 406.92578 z "
       transform="scale(0.26458333)"
       id="rect4556" />
    <path
       style="opacity:0.5;fill:#000000;fill-opacity:1;stroke:none;stroke-width:7.50000143;stroke-miterlimit:4;stroke-dasharray:none;stroke-opacity:1"
       d="M 129.79883 235.61133 L 134.41406 252.73633 L 137.57422 247.35742 L 166.18555 276.18945 A 94.999997 94.999997 0 0 1 170.14258 272.20312 L 141.54492 243.38672 L 146.92383 240.22656 L 129.79883 235.61133 z M 303.78711 406.87695 A 94.999997 94.999997 0 0 1 299.83008 410.86133 L 321.33789 432.53516 L 319.52148 437.14844 L 324.66211 442.28906 L 329.80273 447.42773 L 332.74023 439.9668 L 340.20117 437.0293 L 335.06055 431.88867 L 329.91992 426.74805 L 325.30859 428.56445 L 303.78711 406.87695 z "
       transform="scale(0.26458333)"
       id="path4574" />
  </g>
</svg>
