<?xml version="1.0" encoding="UTF-8" standalone="no"?>
<!-- Created with Inkscape (http://www.inkscape.org/) -->

<svg
   xmlns:dc="http://purl.org/dc/elements/1.1/"
   xmlns:cc="http://creativecommons.org/ns#"
   xmlns:rdf="http://www.w3.org/1999/02/22-rdf-syntax-ns#"
   xmlns:svg="http://www.w3.org/2000/svg"
   xmlns="http://www.w3.org/2000/svg"
   xmlns:sodipodi="http://sodipodi.sourceforge.net/DTD/sodipodi-0.dtd"
   xmlns:inkscape="http://www.inkscape.org/namespaces/inkscape"
   width="210mm"
   height="297mm"
   viewBox="0 0 210 297"
   version="1.1"
   id="svg8"
   inkscape:version="0.92.3 (2405546, 2018-03-11)"
   sodipodi:docname="logo.svg">
  <defs
     id="defs2">
    <inkscape:path-effect
       effect="skeletal"
       id="path-effect848"
       is_visible="true"
       pattern="m 104.91762,74.033653 h 2.75753 v 4.464579 h -2.75753 z"
       copytype="repeated_stretched"
       prop_scale="1"
       scale_y_rel="false"
       spacing="1"
       normal_offset="0"
       tang_offset="0"
       prop_units="false"
       vertical_pattern="false"
       fuse_tolerance="0" />
  </defs>
  <sodipodi:namedview
     id="base"
     pagecolor="#ffffff"
     bordercolor="#666666"
     borderopacity="1.0"
     inkscape:pageopacity="0.0"
     inkscape:pageshadow="2"
     inkscape:zoom="1.0682895"
     inkscape:cx="373.70092"
     inkscape:cy="842.75066"
     inkscape:document-units="px"
     inkscape:current-layer="layer1"
     showgrid="false"
     showborder="false"
     inkscape:snap-page="false"
     inkscape:window-width="1366"
     inkscape:window-height="705"
     inkscape:window-x="-8"
     inkscape:window-y="-8"
     inkscape:window-maximized="1"
     showguides="false" />
  <metadata
     id="metadata5">
    <rdf:RDF>
      <cc:Work
         rdf:about="">
        <dc:format>image/svg+xml</dc:format>
        <dc:type
           rdf:resource="http://purl.org/dc/dcmitype/StillImage" />
        <dc:title />
      </cc:Work>
    </rdf:RDF>
  </metadata>
  <g
     inkscape:label="Camada 1"
     inkscape:groupmode="layer"
     id="layer1">
    <circle
       style="fill:none;stroke:#000000;stroke-width:3.96875001;stroke-miterlimit:4;stroke-dasharray:none;stroke-opacity:1;fill-opacity:1;opacity:0.5"
       id="path4546"
       cx="62.177082"
       cy="90.360413"
       r="25.135416" />
    <circle
       r="21.166666"
       cy="90.360413"
       cx="62.177082"
       id="circle4548"
       style="opacity:0.5;fill:none;fill-opacity:1;stroke:#000000;stroke-width:1.98437488;stroke-miterlimit:4;stroke-dasharray:none;stroke-opacity:1" />
    <path
       style="opacity:0.5;fill:#000000;fill-opacity:1;stroke:none;stroke-width:7.50000143;stroke-miterlimit:4;stroke-dasharray:none;stroke-opacity:1"
       d="M 340.20117 235.61133 L 323.07617 240.22656 L 328.45508 243.38672 L 299.82617 272.23633 A 94.999997 94.999997 0 0 1 303.86133 276.14258 L 332.42578 247.35742 L 335.58594 252.73633 L 340.20117 235.61133 z M 166.16602 406.92578 L 144.69141 428.56445 L 140.08008 426.74805 L 134.93945 431.88867 L 129.79883 437.0293 L 137.25977 439.9668 L 140.19727 447.42773 L 145.33789 442.28906 L 150.47852 437.14844 L 148.66211 432.53516 L 170.20312 410.82812 A 94.999997 94.999997 0 0 1 166.16602 406.92578 z "
       transform="scale(0.26458333)"
       id="rect4556" />
    <path
       style="opacity:0.5;fill:#000000;fill-opacity:1;stroke:none;stroke-width:7.50000143;stroke-miterlimit:4;stroke-dasharray:none;stroke-opacity:1"
       d="M 129.79883 235.61133 L 134.41406 252.73633 L 137.57422 247.35742 L 166.18555 276.18945 A 94.999997 94.999997 0 0 1 170.14258 272.20312 L 141.54492 243.38672 L 146.92383 240.22656 L 129.79883 235.61133 z M 303.78711 406.87695 A 94.999997 94.999997 0 0 1 299.83008 410.86133 L 321.33789 432.53516 L 319.52148 437.14844 L 324.66211 442.28906 L 329.80273 447.42773 L 332.74023 439.9668 L 340.20117 437.0293 L 335.06055 431.88867 L 329.91992 426.74805 L 325.30859 428.56445 L 303.78711 406.87695 z "
       transform="scale(0.26458333)"
       id="path4574" />
    <path
       style="color:#000000;font-style:normal;font-variant:normal;font-weight:normal;font-stretch:normal;font-size:medium;line-height:normal;font-family:sans-serif;font-variant-ligatures:normal;font-variant-position:normal;font-variant-caps:normal;font-variant-numeric:normal;font-variant-alternates:normal;font-feature-settings:normal;text-indent:0;text-align:start;text-decoration:none;text-decoration-line:none;text-decoration-style:solid;text-decoration-color:#000000;letter-spacing:normal;word-spacing:normal;text-transform:none;writing-mode:lr-tb;direction:ltr;text-orientation:mixed;dominant-baseline:auto;baseline-shift:baseline;text-anchor:start;white-space:normal;shape-padding:0;clip-rule:nonzero;display:inline;overflow:visible;visibility:visible;opacity:0.5;isolation:auto;mix-blend-mode:normal;color-interpolation:sRGB;color-interpolation-filters:linearRGB;solid-color:#000000;solid-opacity:1;vector-effect:none;fill:#000000;fill-opacity:1;fill-rule:nonzero;stroke:none;stroke-width:7.49999952;stroke-linecap:butt;stroke-linejoin:miter;stroke-miterlimit:4;stroke-dasharray:none;stroke-dashoffset:0;stroke-opacity:1;color-rendering:auto;image-rendering:auto;shape-rendering:auto;text-rendering:auto;enable-background:accumulate"
       d="M 235.00195 217.77344 C 206.57621 217.77344 180.38147 227.38356 159.47852 243.52148 L 164.79688 248.83984 C 184.29849 234.05052 208.61499 225.27344 235.00195 225.27344 C 261.38837 225.27344 285.70562 234.05108 305.20703 248.83984 L 310.52539 243.52148 C 289.62251 227.38377 263.4275 217.77344 235.00195 217.77344 z M 137 266 C 120.86228 286.90288 111.25195 313.0979 111.25195 341.52344 C 111.25195 369.94919 120.86208 396.14392 137 417.04688 L 142.31836 411.72852 C 127.52903 392.2269 118.75195 367.91041 118.75195 341.52344 C 118.75195 315.13703 127.5296 290.81977 142.31836 271.31836 L 137 266 z M 333.00391 266 L 327.68555 271.31641 C 342.47487 290.81802 351.25195 315.13647 351.25195 341.52344 C 351.25195 367.91041 342.47487 392.2269 327.68555 411.72852 L 333.00391 417.04688 C 349.14183 396.14392 358.75195 369.94919 358.75195 341.52344 C 358.75195 313.0979 349.14162 286.90288 333.00391 266 z M 164.79688 434.20703 L 159.47852 439.52539 C 180.38147 455.66332 206.57621 465.27344 235.00195 465.27344 C 263.4275 465.27344 289.62251 455.66311 310.52539 439.52539 L 305.20898 434.20703 C 285.70737 448.99636 261.38892 457.77344 235.00195 457.77344 C 208.61499 457.77344 184.29849 448.99636 164.79688 434.20703 z "
       transform="scale(0.26458333)"
       id="circle819" />
    <path
       style="opacity:0.5;fill:#000000;fill-opacity:1;stroke:none;stroke-width:15;stroke-miterlimit:4;stroke-dasharray:none;stroke-opacity:1"
       d="m 146.69336,264.56055 c -1.57156,1.7807 -3.09845,3.60018 -4.56836,5.46484 l 13.18555,10.41797 c 1.06733,-1.34738 2.16829,-2.66973 3.29687,-3.96875 z m 164.69922,11.91406 c -207.59505,564.03006 -103.79753,282.01503 0,0 z m 16.85547,-5.97266 -13.23438,10.35547 c 2.0223,2.57743 3.93085,5.23916 5.71289,7.97461 l 14.07032,-9.12695 c -2.04357,-3.16228 -4.23049,-6.2334 -6.54883,-9.20313 z m -188.60743,2.78321 c -2.23571,3.03156 -4.33678,6.1615 -6.29101,9.3789 l 14.30664,8.72461 c 1.70338,-2.77991 3.53599,-5.48858 5.48633,-8.11719 z m 197.32227,9.89453 -14.34766,8.65625 c 1.68956,2.7874 3.2502,5.6447 4.66993,8.56054 l 15.04296,-7.28515 c -1.63419,-3.38971 -3.42667,-6.70491 -5.36523,-9.93164 z m -205.68164,3.01758 c -1.84679,3.27943 -3.5424,6.64243 -5.07813,10.07812 l 15.23633,6.8418 c 1.33192,-2.95116 2.80756,-5.84636 4.41602,-8.67578 z m 212.76172,10.63085 -15.26953,6.76368 c 1.31651,2.95705 2.48875,5.96751 3.50586,9.02343 l 15.82226,-5.25195 c -1.18453,-3.57683 -2.54012,-7.09171 -4.05859,-10.53516 z m -219.44727,3.2129 c -1.41755,3.48699 -2.66919,7.04257 -3.74609,10.65625 l 15.97266,4.76562 c 0.92015,-3.08209 1.99833,-6.12334 3.22461,-9.11328 z m 224.72657,11.23828 -15.99805,4.67773 c 0.90316,3.08641 1.64653,6.21345 2.2207,9.36914 l 16.41211,-3.02734 c -0.69455,-3.72365 -1.5767,-7.39969 -2.63476,-11.01953 z m -229.57618,3.37304 c -0.948,3.65425 -1.71518,7.36194 -2.29297,11.11328 l 16.51758,2.4961 c 0.46808,-3.17272 1.11029,-6.31954 1.91407,-9.42969 z m 232.89258,11.7168 -16.53711,2.40039 c 0.4495,3.17545 0.72547,6.37664 0.81641,9.5918 l 16.80859,-0.60938 c -0.16426,-3.83015 -0.53052,-7.62688 -1.08789,-11.38281 z m -235.73828,3.49414 c -0.43816,3.7812 -0.68234,7.60246 -0.7207,11.45117 l 16.87109,0.0332 c -0.0243,-3.22304 0.13948,-6.43496 0.48047,-9.625 z m 220.04688,11.65625 c 0.031,3.22343 -0.1263,6.43613 -0.46094,9.62695 l 16.63672,1.82618 c 0.43123,-3.78259 0.66822,-7.60341 0.69922,-11.45313 z m -203.86133,3.33008 -16.80274,0.64258 c 0.17147,3.82902 0.5452,7.62449 1.10938,11.3789 l 16.5293,-2.43164 c -0.4557,-3.17454 -0.73843,-6.3752 -0.83594,-9.58984 z m 202.96679,9.75977 c -0.46188,3.17363 -1.09655,6.32018 -1.89453,9.43164 l 16.14453,4.15039 c 0.9416,-3.65617 1.70441,-7.36627 2.27539,-11.11914 z m -201.5664,3.27343 -16.40625,3.05664 c 0.70122,3.72199 1.58994,7.39784 2.6543,11.01563 l 15.99023,-4.70899 c -0.90883,-3.08497 -1.65805,-6.20863 -2.23828,-9.36328 z m 198.74023,9.5293 c -0.91449,3.08354 -1.98798,6.12736 -3.20898,9.11914 l 15.46289,6.2793 c 1.41167,-3.48945 2.65788,-7.04638 3.72851,-10.66211 z m -195.45117,3.17383 -15.81445,5.28125 c 1.19068,3.57463 2.5539,7.08841 4.07812,10.52929 l 15.25782,-6.79101 c -1.32166,-2.95509 -2.49886,-5.96519 -3.52149,-9.01953 z m 190.85742,9.17773 c -1.32679,2.95314 -2.79862,5.85182 -4.40234,8.6836 l 14.58594,8.21875 c 1.84143,-3.28245 3.53252,-6.64763 5.0625,-10.08594 z m -185.84179,3.03516 -15.03125,7.31055 c 1.63982,3.38698 3.43707,6.69824 5.38085,9.92187 l 14.33399,-8.67969 c -1.69417,-2.78494 -3.25886,-5.63902 -4.68359,-8.55273 z m 179.64257,8.70312 c -1.69878,2.78242 -3.52652,5.49351 -5.47265,8.125 l 13.51953,9.96485 c 2.23088,-3.03508 4.32442,-6.16814 6.27344,-9.38868 z m -173.06445,2.85157 -14.05664,9.15039 c 2.04866,3.15904 4.24141,6.22726 6.56445,9.19336 l 13.2168,-10.37696 c -2.02638,-2.57442 -3.93809,-5.23397 -5.72461,-7.96679 z m 165.42774,8.10546 c -1.10174,1.39526 -2.23894,2.76191 -3.40626,4.10547 l 11.91602,11.91407 c 1.61598,-1.83104 3.18493,-3.7033 4.69336,-5.62305 z"
       transform="scale(0.26458333)"
       id="circle834"
       inkscape:connector-curvature="0"
       sodipodi:nodetypes="cccccccccccccccccccccccccccccccccccccccccccccccccccccccccccccccccccccccccccccccccccccccccccccccccccccccccccccccc" />
  </g>
</svg>
